# xmcd
#
# Track frame offsets: 
#        150
#        18535
#        33190
#        48306
#        63926
#        77561
#        91058
#        108549
#        126041
#        141989
#        153311
#        166493
#        181396
#        194967
#        209465
#        223717
#        236885
#        251446
#        265526
#        280495
#
# Disc length: 3931 seconds
#
# Revision: 0
# Processed by: cddbd v1.5.1PL2 Copyright (c) Steve Scherf et al.
# Submitted via: ExactAudioCopy v0.95b4
#
DISCID=240f5914
DTITLE=Rina Hugo and Ge Korsten - Rina Hugo and Ge Korsten CD 1
DYEAR=1900
DGENRE=Acid Punk
TTITLE0=Ek Sien Vandag Die Son Weer Skyn
TTITLE1=Seeman
TTITLE2=Ek Mis Jou Elke Dag 'n Bietjie Meer
TTITLE3=As Die Swaeltjies Huis Toe Kom
TTITLE4=Sonder Jou
TTITLE5=Shalatie Shalala
TTITLE6='n Tikkie Vryheid
TTITLE7=Lied Van Die lewe
TTITLE8=Jy Weet, Ek Weet
TTITLE9=Hierdie Jaar Met Jou
TTITLE10=Sing Seeman Sing
TTITLE11=Vir My
TTITLE12=Liefste Madelein
TTITLE13=Algoa Baai
TTITLE14=Kaapstad Nagte
TTITLE15='n Liefde Wat Vir Altyd Bly
TTITLE16=Ek Hou Van Jou
TTITLE17=Troepie Doepie
TTITLE18=Strandfontein
TTITLE19=Liefling
EXTD=
EXTT0=
EXTT1=
EXTT2=
EXTT3=
EXTT4=
EXTT5=
EXTT6=
EXTT7=
EXTT8=
EXTT9=
EXTT10=
EXTT11=
EXTT12=
EXTT13=
EXTT14=
EXTT15=
EXTT16=
EXTT17=
EXTT18=
EXTT19=
PLAYORDER=
